<svg width="134" height="40" viewBox="0 0 134 40" fill="none" xmlns="http://www.w3.org/2000/svg">
<path d="M5.384 39.416C3.824 39.416 2.54133 38.9653 1.536 38.064C0.565333 37.128 0.0800001 35.984 0.0800001 34.632C0.0800001 33.2453 0.565333 32.084 1.536 31.148C2.54133 30.212 3.824 29.744 5.384 29.744C6.90933 29.744 8.15733 30.212 9.128 31.148C10.1333 32.084 10.636 33.2453 10.636 34.632C10.636 35.984 10.1333 37.128 9.128 38.064C8.15733 38.9653 6.90933 39.416 5.384 39.416ZM32.0718 31.46V39H27.5478C24.3238 39 21.8104 38.22 20.0078 36.66C18.2051 35.0653 17.3038 32.4827 17.3038 28.912V17.368H13.7678V9.984H17.3038V2.912H26.1958V9.984H32.0198V17.368H26.1958V29.016C26.1958 29.8827 26.4038 30.5067 26.8198 30.888C27.2358 31.2693 27.9291 31.46 28.8998 31.46H32.0718ZM50.2328 39.416C47.3901 39.416 44.8248 38.8093 42.5368 37.596C40.2834 36.3827 38.4981 34.6493 37.1808 32.396C35.8981 30.1427 35.2568 27.508 35.2568 24.492C35.2568 21.5107 35.9154 18.8933 37.2328 16.64C38.5501 14.352 40.3528 12.6013 42.6408 11.388C44.9288 10.1747 47.4941 9.568 50.3368 9.568C53.1794 9.568 55.7448 10.1747 58.0328 11.388C60.3208 12.6013 62.1234 14.352 63.4408 16.64C64.7581 18.8933 65.4168 21.5107 65.4168 24.492C65.4168 27.4733 64.7408 30.108 63.3888 32.396C62.0714 34.6493 60.2514 36.3827 57.9288 37.596C55.6408 38.8093 53.0754 39.416 50.2328 39.416ZM50.2328 31.72C51.9314 31.72 53.3701 31.096 54.5488 29.848C55.7621 28.6 56.3688 26.8147 56.3688 24.492C56.3688 22.1693 55.7794 20.384 54.6008 19.136C53.4568 17.888 52.0354 17.264 50.3368 17.264C48.6034 17.264 47.1648 17.888 46.0208 19.136C44.8768 20.3493 44.3048 22.1347 44.3048 24.492C44.3048 26.8147 44.8594 28.6 45.9688 29.848C47.1128 31.096 48.5341 31.72 50.2328 31.72ZM68.3662 24.44C68.3662 21.4587 68.9208 18.8413 70.0302 16.588C71.1742 14.3347 72.7168 12.6013 74.6582 11.388C76.5995 10.1747 78.7662 9.568 81.1582 9.568C83.0648 9.568 84.7982 9.96666 86.3582 10.764C87.9528 11.5613 89.2008 12.636 90.1022 13.988V0.52H98.9942V39H90.1022V34.84C89.2702 36.2267 88.0742 37.336 86.5142 38.168C84.9888 39 83.2035 39.416 81.1582 39.416C78.7662 39.416 76.5995 38.8093 74.6582 37.596C72.7168 36.348 71.1742 34.5973 70.0302 32.344C68.9208 30.056 68.3662 27.4213 68.3662 24.44ZM90.1022 24.492C90.1022 22.2733 89.4782 20.5227 88.2302 19.24C87.0168 17.9573 85.5262 17.316 83.7582 17.316C81.9902 17.316 80.4822 17.9573 79.2342 19.24C78.0208 20.488 77.4142 22.2213 77.4142 24.44C77.4142 26.6587 78.0208 28.4267 79.2342 29.744C80.4822 31.0267 81.9902 31.668 83.7582 31.668C85.5262 31.668 87.0168 31.0267 88.2302 29.744C89.4782 28.4613 90.1022 26.7107 90.1022 24.492ZM118.635 39.416C115.792 39.416 113.227 38.8093 110.939 37.596C108.686 36.3827 106.9 34.6493 105.583 32.396C104.3 30.1427 103.659 27.508 103.659 24.492C103.659 21.5107 104.318 18.8933 105.635 16.64C106.952 14.352 108.755 12.6013 111.043 11.388C113.331 10.1747 115.896 9.568 118.739 9.568C121.582 9.568 124.147 10.1747 126.435 11.388C128.723 12.6013 130.526 14.352 131.843 16.64C133.16 18.8933 133.819 21.5107 133.819 24.492C133.819 27.4733 133.143 30.108 131.791 32.396C130.474 34.6493 128.654 36.3827 126.331 37.596C124.043 38.8093 121.478 39.416 118.635 39.416ZM118.635 31.72C120.334 31.72 121.772 31.096 122.951 29.848C124.164 28.6 124.771 26.8147 124.771 24.492C124.771 22.1693 124.182 20.384 123.003 19.136C121.859 17.888 120.438 17.264 118.739 17.264C117.006 17.264 115.567 17.888 114.423 19.136C113.279 20.3493 112.707 22.1347 112.707 24.492C112.707 26.8147 113.262 28.6 114.371 29.848C115.515 31.096 116.936 31.72 118.635 31.72Z" fill="#333333"/>
</svg>
